# xmcd
# Copyright (C) 1995-1998 Ti Kan
#
# Track frame offsets:
#       150
#       17751
#       34244
#       52157
#       70126
#       87285
#       112972
#       130460
#       146169
#       164216
#       199494
#
# Disc length: 4153 seconds
#
# Revision: 0
# Processed by: cddbd v1.5.2PL0 Copyright (c) Steve Scherf et al.
# Submitted via: CD-Transfer v1.0
#
DISCID=ac10370b
DTITLE=Cherry Ghost - Thirst For Romance [CD)
DYEAR=07
DGENRE=
TTITLE0=Thirst For Romance (Radio Edit)
TTITLE1=4am (Radio Edit)
TTITLE2=Mountain Bird (Radio Edit)
TTITLE3=People Help The People (Radio Edit)
TTITLE4=Roses (Radio Edit)
TTITLE5=Dead Man's Suit (Radio Edit)
TTITLE6=False Alarm (Radio Edit)
TTITLE7=Alfred The Great (Radio Edit)
TTITLE8=Here Come The Romans (Radio Edit)
TTITLE9=Mary On The Mend (Radio Edit)
TTITLE10=Mathematics (Radio Edit)
EXTD=
EXTT0=
EXTT1=
EXTT2=
EXTT3=
EXTT4=
EXTT5=
EXTT6=
EXTT7=
EXTT8=
EXTT9=
EXTT10=
PLAYORDER=
